Disc Title:     The Boss Baby
Disc Label:     The.Boss.Baby.2017.3D.MULTI.COMPLETE.BLURAY-GMB
Disc Size:      40,845,069,153 bytes
Protection:     AACS
Extras:         BD-Java
BDInfo:         0.7.5.5

Notes:          

BDINFO HOME:
  Cinema Squid (old)
    http://www.cinemasquid.com/blu-ray/tools/bdinfo
  UniqProject GitHub (new)
   https://github.com/UniqProject/BDInfo

INCLUDES FORUMS REPORT FOR:
  AVS Forum Blu-ray Audio and Video Specifications Thread
    http://www.avsforum.com/avs-vb/showthread.php?t=1155731


********************
PLAYLIST: 00600.MPLS
********************

<--- BEGIN FORUMS PASTE --->
[code]
                                                                                                                Total   Video                                             
Title                                                           Codec   Length  Movie Size      Disc Size       Bitrate Bitrate Main Audio Track                          Secondary Audio Track
-----                                                           ------  ------- --------------  --------------  ------- ------- ------------------                        ---------------------
00600.MPLS                                                      AVC     1:37:30 26,123,028,480  40,845,069,153  35.72   25.07   DTS-HD Master 7.1 4533Kbps (48kHz/24-bit) 
[/code]

[code]

DISC INFO:

Disc Title:     The Boss Baby
Disc Label:     The.Boss.Baby.2017.3D.MULTI.COMPLETE.BLURAY-GMB
Disc Size:      40,845,069,153 bytes
Protection:     AACS
Extras:         BD-Java
BDInfo:         0.7.5.5

PLAYLIST REPORT:

Name:                   00600.MPLS
Length:                 1:37:30.845 (h:m:s.ms)
Size:                   26,123,028,480 bytes
Total Bitrate:          35.72 Mbps

VIDEO:

Codec                   Bitrate             Description     
-----                   -------             -----------     
MPEG-4 AVC Video        25072 kbps          1080p / 23.976 fps / 16:9 / High Profile 4.1

AUDIO:

Codec                           Language        Bitrate         Description     
-----                           --------        -------         -----------     
DTS-HD Master Audio             English         4533 kbps       7.1 / 48 kHz /  4533 kbps / 24-bit (DTS Core: 5.1-ES / 48 kHz /  1509 kbps / 24-bit)
DTS Audio                       French          768 kbps        5.1 / 48 kHz /   768 kbps / 24-bit
DTS Audio                       Dutch           768 kbps        5.1 / 48 kHz /   768 kbps / 24-bit
DTS Audio                       German          768 kbps        5.1 / 48 kHz /   768 kbps / 24-bit
DTS Audio                       Italian         768 kbps        5.1 / 48 kHz /   768 kbps / 24-bit
DTS Audio                       Dutch           768 kbps        5.1 / 48 kHz /   768 kbps / 24-bit

SUBTITLES:

Codec                           Language        Bitrate         Description     
-----                           --------        -------         -----------     
Presentation Graphics           English         37.208 kbps                     
Presentation Graphics           English         0.080 kbps                      
Presentation Graphics           French          32.047 kbps                     
Presentation Graphics           Dutch           30.950 kbps                     
Presentation Graphics           German          36.473 kbps                     
Presentation Graphics           Italian         36.069 kbps                     

FILES:

Name            Time In         Length          Size            Total Bitrate   
----            -------         ------          ----            -------------   
00800.M2TS      0:00:00.000     1:37:30.845     26,123,028,480  35,719          

CHAPTERS:

Number          Time In         Length          Avg Video Rate  Max 1-Sec Rate  Max 1-Sec Time  Max 5-Sec Rate  Max 5-Sec Time  Max 10Sec Rate  Max 10Sec Time  Avg Frame Size  Max Frame Size  Max Frame Time  
------          -------         ------          --------------  --------------  --------------  --------------  --------------  --------------  --------------  --------------  --------------  --------------  
1               0:00:00.000     0:03:45.892     28,645 kbps     36,051 kbps     00:02:57.802    30,786 kbps     00:02:32.110    30,294 kbps     00:00:33.491    149,312 bytes   640,646 bytes   00:00:28.445    
2               0:03:45.892     0:05:12.395     24,511 kbps     32,982 kbps     00:07:04.215    29,730 kbps     00:08:23.544    29,283 kbps     00:06:41.943    127,791 bytes   640,646 bytes   00:07:05.049    
3               0:08:58.287     0:02:47.625     24,425 kbps     31,498 kbps     00:09:15.763    30,011 kbps     00:09:34.574    29,622 kbps     00:09:29.569    127,340 bytes   640,646 bytes   00:09:48.629    
4               0:11:45.913     0:03:13.651     24,380 kbps     32,340 kbps     00:13:02.364    29,340 kbps     00:13:48.494    27,445 kbps     00:14:28.534    127,106 bytes   640,646 bytes   00:12:04.432    
5               0:14:59.565     0:04:38.653     24,066 kbps     34,183 kbps     00:16:53.303    29,841 kbps     00:15:27.551    29,072 kbps     00:18:47.167    125,468 bytes   640,646 bytes   00:15:46.946    
6               0:19:38.218     0:03:14.569     24,586 kbps     33,818 kbps     00:22:44.863    30,264 kbps     00:21:13.897    29,775 kbps     00:21:12.104    128,182 bytes   640,646 bytes   00:20:16.381    
7               0:22:52.788     0:05:34.459     26,553 kbps     35,235 kbps     00:23:56.518    30,581 kbps     00:24:24.463    30,038 kbps     00:24:49.446    138,436 bytes   640,646 bytes   00:22:54.790    
8               0:28:27.247     0:01:58.868     23,031 kbps     31,022 kbps     00:28:51.563    28,120 kbps     00:28:31.960    27,111 kbps     00:28:27.831    120,073 bytes   640,646 bytes   00:28:40.343    
9               0:30:26.115     0:03:19.365     25,892 kbps     32,748 kbps     00:31:06.072    30,140 kbps     00:32:40.667    29,645 kbps     00:31:56.372    134,987 bytes   640,646 bytes   00:30:58.773    
10              0:33:45.481     0:03:11.774     24,802 kbps     32,038 kbps     00:36:16.924    29,696 kbps     00:35:06.312    29,016 kbps     00:35:06.312    129,306 bytes   640,646 bytes   00:34:16.220    
11              0:36:57.256     0:02:21.099     22,485 kbps     30,290 kbps     00:38:17.253    26,035 kbps     00:38:16.335    25,081 kbps     00:37:32.458    117,229 bytes   640,646 bytes   00:37:56.023    
12              0:39:18.355     0:03:16.988     22,779 kbps     35,079 kbps     00:42:04.897    30,125 kbps     00:40:24.880    29,524 kbps     00:40:19.875    118,761 bytes   640,646 bytes   00:40:51.824    
13              0:42:35.344     0:03:45.266     24,943 kbps     31,943 kbps     00:43:14.091    30,380 kbps     00:43:13.674    30,075 kbps     00:43:08.669    130,040 bytes   640,646 bytes   00:42:50.067    
14              0:46:20.611     0:05:17.108     24,511 kbps     33,339 kbps     00:51:18.200    29,696 kbps     00:49:55.826    28,562 kbps     00:51:18.116    127,790 bytes   640,646 bytes   00:46:47.596    
15              0:51:37.719     0:01:47.565     26,129 kbps     31,958 kbps     00:53:13.273    29,842 kbps     00:53:20.280    29,252 kbps     00:53:05.223    136,223 bytes   640,646 bytes   00:53:00.844    
16              0:53:25.285     0:03:03.433     25,498 kbps     33,431 kbps     00:56:18.792    30,010 kbps     00:55:23.319    29,736 kbps     00:55:59.731    132,936 bytes   640,646 bytes   00:55:12.600    
17              0:56:28.718     0:03:06.686     28,273 kbps     33,137 kbps     00:59:30.608    30,346 kbps     00:58:23.750    29,967 kbps     00:58:18.745    147,401 bytes   640,646 bytes   00:57:35.702    
18              0:59:35.405     0:04:27.767     24,051 kbps     33,000 kbps     01:00:21.743    30,071 kbps     01:02:22.822    29,878 kbps     01:02:18.901    125,389 bytes   640,646 bytes   01:02:43.176    
19              1:04:03.172     0:04:12.585     26,470 kbps     32,733 kbps     01:06:48.504    30,239 kbps     01:04:12.306    29,907 kbps     01:04:17.937    138,004 bytes   640,646 bytes   01:04:15.685    
20              1:08:15.758     0:03:14.152     26,537 kbps     32,197 kbps     01:10:18.088    30,236 kbps     01:10:14.084    29,904 kbps     01:08:51.043    138,352 bytes   578,948 bytes   01:10:28.140    
21              1:11:29.910     0:04:55.336     24,012 kbps     33,042 kbps     01:12:49.823    29,119 kbps     01:14:01.645    28,032 kbps     01:12:48.989    125,185 bytes   640,646 bytes   01:12:12.828    
22              1:16:25.247     0:06:44.862     24,039 kbps     32,174 kbps     01:18:10.686    29,610 kbps     01:21:01.106    29,022 kbps     01:20:02.422    125,330 bytes   640,646 bytes   01:17:53.377    
23              1:23:10.110     0:04:26.849     24,738 kbps     32,402 kbps     01:26:04.450    29,947 kbps     01:24:39.908    29,636 kbps     01:24:35.111    128,975 bytes   640,646 bytes   01:26:07.370    
24              1:27:36.960     0:09:53.884     25,594 kbps     38,343 kbps     01:30:26.295    31,524 kbps     01:30:22.291    29,985 kbps     01:28:08.700    133,445 bytes   640,646 bytes   01:27:43.591    

STREAM DIAGNOSTICS:

File            PID             Type            Codec           Language                Seconds                 Bitrate                 Bytes           Packets         
----            ---             ----            -----           --------                --------------          --------------          -------------   -----           
00800.M2TS      4113 (0x1011)   0x1B            AVC                                     5850.720                25,072                  18,336,375,902  99,736,524      
00800.M2TS      4352 (0x1100)   0x86            DTS-HD MA       eng (English)           5850.720                4,533                   3,315,520,824   18,931,777      
00800.M2TS      4353 (0x1101)   0x82            DTS             fra (French)            5850.720                768                     561,681,408     3,291,102       
00800.M2TS      4354 (0x1102)   0x82            DTS             nld (Dutch)             5850.720                768                     561,681,408     3,291,102       
00800.M2TS      4355 (0x1103)   0x82            DTS             deu (German)            5850.720                768                     561,681,408     3,291,102       
00800.M2TS      4356 (0x1104)   0x82            DTS             ita (Italian)           5850.720                768                     561,681,408     3,291,102       
00800.M2TS      4357 (0x1105)   0x82            DTS             nld (Dutch)             5850.720                768                     561,681,408     3,291,102       
00800.M2TS      4608 (0x1200)   0x90            PGS             eng (English)           5850.720                37                      27,212,455      158,859         
00800.M2TS      4609 (0x1201)   0x90            PGS             eng (English)           5850.720                0                       58,363          374             
00800.M2TS      4610 (0x1202)   0x90            PGS             fra (French)            5850.720                32                      23,437,916      137,270         
00800.M2TS      4611 (0x1203)   0x90            PGS             nld (Dutch)             5850.720                31                      22,635,294      131,378         
00800.M2TS      4612 (0x1204)   0x90            PGS             deu (German)            5850.720                36                      26,674,851      155,363         
00800.M2TS      4613 (0x1205)   0x90            PGS             ita (Italian)           5850.720                36                      26,379,445      154,436         

[/code]
<---- END FORUMS PASTE ---->

QUICK SUMMARY:

Disc Title: The Boss Baby
Disc Label: The.Boss.Baby.2017.3D.MULTI.COMPLETE.BLURAY-GMB
Disc Size: 40,845,069,153 bytes
Protection: AACS
Playlist: 00600.MPLS
Size: 26,123,028,480 bytes
Length: 1:37:30.845
Total Bitrate: 35.72 Mbps
Video: MPEG-4 AVC Video / 25072 kbps / 1080p / 23.976 fps / 16:9 / High Profile 4.1
Audio: English / DTS-HD Master Audio / 7.1 / 48 kHz /  4533 kbps / 24-bit (DTS Core: 5.1-ES / 48 kHz /  1509 kbps / 24-bit)
Audio: French / DTS Audio / 5.1 / 48 kHz /   768 kbps / 24-bit
Audio: Dutch / DTS Audio / 5.1 / 48 kHz /   768 kbps / 24-bit
Audio: German / DTS Audio / 5.1 / 48 kHz /   768 kbps / 24-bit
Audio: Italian / DTS Audio / 5.1 / 48 kHz /   768 kbps / 24-bit
Audio: Dutch / DTS Audio / 5.1 / 48 kHz /   768 kbps / 24-bit
Subtitle: English / 37.208 kbps
Subtitle: English / 0.080 kbps
Subtitle: French / 32.047 kbps
Subtitle: Dutch / 30.950 kbps
Subtitle: German / 36.473 kbps
Subtitle: Italian / 36.069 kbps


********************
PLAYLIST: 00800.MPLS
********************

<--- BEGIN FORUMS PASTE --->
[code]
                                                                                                                Total   Video                                             
Title                                                           Codec   Length  Movie Size      Disc Size       Bitrate Bitrate Main Audio Track                          Secondary Audio Track
-----                                                           ------  ------- --------------  --------------  ------- ------- ------------------                        ---------------------
00800.MPLS                                                      AVC     1:37:30 26,123,028,480  40,845,069,153  35.72   25.07   DTS-HD Master 7.1 4533Kbps (48kHz/24-bit) 
[/code]

[code]

DISC INFO:

Disc Title:     The Boss Baby
Disc Label:     The.Boss.Baby.2017.3D.MULTI.COMPLETE.BLURAY-GMB
Disc Size:      40,845,069,153 bytes
Protection:     AACS
Extras:         BD-Java
BDInfo:         0.7.5.5

PLAYLIST REPORT:

Name:                   00800.MPLS
Length:                 1:37:30.845 (h:m:s.ms)
Size:                   26,123,028,480 bytes
Total Bitrate:          35.72 Mbps

VIDEO:

Codec                   Bitrate             Description     
-----                   -------             -----------     
MPEG-4 AVC Video        25072 kbps          1080p / 23.976 fps / 16:9 / High Profile 4.1

AUDIO:

Codec                           Language        Bitrate         Description     
-----                           --------        -------         -----------     
DTS-HD Master Audio             English         4533 kbps       7.1 / 48 kHz /  4533 kbps / 24-bit (DTS Core: 5.1-ES / 48 kHz /  1509 kbps / 24-bit)
DTS Audio                       French          768 kbps        5.1 / 48 kHz /   768 kbps / 24-bit
DTS Audio                       Dutch           768 kbps        5.1 / 48 kHz /   768 kbps / 24-bit
DTS Audio                       German          768 kbps        5.1 / 48 kHz /   768 kbps / 24-bit
DTS Audio                       Italian         768 kbps        5.1 / 48 kHz /   768 kbps / 24-bit
DTS Audio                       Dutch           768 kbps        5.1 / 48 kHz /   768 kbps / 24-bit

SUBTITLES:

Codec                           Language        Bitrate         Description     
-----                           --------        -------         -----------     
Presentation Graphics           English         37.208 kbps                     
Presentation Graphics           English         0.080 kbps                      
Presentation Graphics           French          32.047 kbps                     
Presentation Graphics           Dutch           30.950 kbps                     
Presentation Graphics           German          36.473 kbps                     
Presentation Graphics           Italian         36.069 kbps                     

FILES:

Name            Time In         Length          Size            Total Bitrate   
----            -------         ------          ----            -------------   
00800.M2TS      0:00:00.000     1:37:30.845     26,123,028,480  35,719          

CHAPTERS:

Number          Time In         Length          Avg Video Rate  Max 1-Sec Rate  Max 1-Sec Time  Max 5-Sec Rate  Max 5-Sec Time  Max 10Sec Rate  Max 10Sec Time  Avg Frame Size  Max Frame Size  Max Frame Time  
------          -------         ------          --------------  --------------  --------------  --------------  --------------  --------------  --------------  --------------  --------------  --------------  
1               0:00:00.000     0:03:45.892     28,645 kbps     36,051 kbps     00:02:57.802    30,786 kbps     00:02:32.110    30,294 kbps     00:00:33.491    149,312 bytes   640,646 bytes   00:00:28.445    
2               0:03:45.892     0:05:12.395     24,511 kbps     32,982 kbps     00:07:04.215    29,730 kbps     00:08:23.544    29,283 kbps     00:06:41.943    127,791 bytes   640,646 bytes   00:07:05.049    
3               0:08:58.287     0:02:47.625     24,425 kbps     31,498 kbps     00:09:15.763    30,011 kbps     00:09:34.574    29,622 kbps     00:09:29.569    127,340 bytes   640,646 bytes   00:09:48.629    
4               0:11:45.913     0:03:13.651     24,380 kbps     32,340 kbps     00:13:02.364    29,340 kbps     00:13:48.494    27,445 kbps     00:14:28.534    127,106 bytes   640,646 bytes   00:12:04.432    
5               0:14:59.565     0:04:38.653     24,066 kbps     34,183 kbps     00:16:53.303    29,841 kbps     00:15:27.551    29,072 kbps     00:18:47.167    125,468 bytes   640,646 bytes   00:15:46.946    
6               0:19:38.218     0:03:14.569     24,586 kbps     33,818 kbps     00:22:44.863    30,264 kbps     00:21:13.897    29,775 kbps     00:21:12.104    128,182 bytes   640,646 bytes   00:20:16.381    
7               0:22:52.788     0:05:34.459     26,553 kbps     35,235 kbps     00:23:56.518    30,581 kbps     00:24:24.463    30,038 kbps     00:24:49.446    138,436 bytes   640,646 bytes   00:22:54.790    
8               0:28:27.247     0:01:58.868     23,031 kbps     31,022 kbps     00:28:51.563    28,120 kbps     00:28:31.960    27,111 kbps     00:28:27.831    120,073 bytes   640,646 bytes   00:28:40.343    
9               0:30:26.115     0:03:19.365     25,892 kbps     32,748 kbps     00:31:06.072    30,140 kbps     00:32:40.667    29,645 kbps     00:31:56.372    134,987 bytes   640,646 bytes   00:30:58.773    
10              0:33:45.481     0:03:11.774     24,802 kbps     32,038 kbps     00:36:16.924    29,696 kbps     00:35:06.312    29,016 kbps     00:35:06.312    129,306 bytes   640,646 bytes   00:34:16.220    
11              0:36:57.256     0:02:21.099     22,485 kbps     30,290 kbps     00:38:17.253    26,035 kbps     00:38:16.335    25,081 kbps     00:37:32.458    117,229 bytes   640,646 bytes   00:37:56.023    
12              0:39:18.355     0:03:16.988     22,779 kbps     35,079 kbps     00:42:04.897    30,125 kbps     00:40:24.880    29,524 kbps     00:40:19.875    118,761 bytes   640,646 bytes   00:40:51.824    
13              0:42:35.344     0:03:45.266     24,943 kbps     31,943 kbps     00:43:14.091    30,380 kbps     00:43:13.674    30,075 kbps     00:43:08.669    130,040 bytes   640,646 bytes   00:42:50.067    
14              0:46:20.611     0:05:17.108     24,511 kbps     33,339 kbps     00:51:18.200    29,696 kbps     00:49:55.826    28,562 kbps     00:51:18.116    127,790 bytes   640,646 bytes   00:46:47.596    
15              0:51:37.719     0:01:47.565     26,129 kbps     31,958 kbps     00:53:13.273    29,842 kbps     00:53:20.280    29,252 kbps     00:53:05.223    136,223 bytes   640,646 bytes   00:53:00.844    
16              0:53:25.285     0:03:03.433     25,498 kbps     33,431 kbps     00:56:18.792    30,010 kbps     00:55:23.319    29,736 kbps     00:55:59.731    132,936 bytes   640,646 bytes   00:55:12.600    
17              0:56:28.718     0:03:06.686     28,273 kbps     33,137 kbps     00:59:30.608    30,346 kbps     00:58:23.750    29,967 kbps     00:58:18.745    147,401 bytes   640,646 bytes   00:57:35.702    
18              0:59:35.405     0:04:27.767     24,051 kbps     33,000 kbps     01:00:21.743    30,071 kbps     01:02:22.822    29,878 kbps     01:02:18.901    125,389 bytes   640,646 bytes   01:02:43.176    
19              1:04:03.172     0:04:12.585     26,470 kbps     32,733 kbps     01:06:48.504    30,239 kbps     01:04:12.306    29,907 kbps     01:04:17.937    138,004 bytes   640,646 bytes   01:04:15.685    
20              1:08:15.758     0:03:14.152     26,537 kbps     32,197 kbps     01:10:18.088    30,236 kbps     01:10:14.084    29,904 kbps     01:08:51.043    138,352 bytes   578,948 bytes   01:10:28.140    
21              1:11:29.910     0:04:55.336     24,012 kbps     33,042 kbps     01:12:49.823    29,119 kbps     01:14:01.645    28,032 kbps     01:12:48.989    125,185 bytes   640,646 bytes   01:12:12.828    
22              1:16:25.247     0:06:44.862     24,039 kbps     32,174 kbps     01:18:10.686    29,610 kbps     01:21:01.106    29,022 kbps     01:20:02.422    125,330 bytes   640,646 bytes   01:17:53.377    
23              1:23:10.110     0:04:26.849     24,738 kbps     32,402 kbps     01:26:04.450    29,947 kbps     01:24:39.908    29,636 kbps     01:24:35.111    128,975 bytes   640,646 bytes   01:26:07.370    
24              1:27:36.960     0:09:53.884     25,594 kbps     38,343 kbps     01:30:26.295    31,524 kbps     01:30:22.291    29,985 kbps     01:28:08.700    133,445 bytes   640,646 bytes   01:27:43.591    

STREAM DIAGNOSTICS:

File            PID             Type            Codec           Language                Seconds                 Bitrate                 Bytes           Packets         
----            ---             ----            -----           --------                --------------          --------------          -------------   -----           
00800.M2TS      4113 (0x1011)   0x1B            AVC                                     5850.720                25,072                  18,336,375,902  99,736,524      
00800.M2TS      4352 (0x1100)   0x86            DTS-HD MA       eng (English)           5850.720                4,533                   3,315,520,824   18,931,777      
00800.M2TS      4353 (0x1101)   0x82            DTS             fra (French)            5850.720                768                     561,681,408     3,291,102       
00800.M2TS      4354 (0x1102)   0x82            DTS             nld (Dutch)             5850.720                768                     561,681,408     3,291,102       
00800.M2TS      4355 (0x1103)   0x82            DTS             deu (German)            5850.720                768                     561,681,408     3,291,102       
00800.M2TS      4356 (0x1104)   0x82            DTS             ita (Italian)           5850.720                768                     561,681,408     3,291,102       
00800.M2TS      4357 (0x1105)   0x82            DTS             nld (Dutch)             5850.720                768                     561,681,408     3,291,102       
00800.M2TS      4608 (0x1200)   0x90            PGS             eng (English)           5850.720                37                      27,212,455      158,859         
00800.M2TS      4609 (0x1201)   0x90            PGS             eng (English)           5850.720                0                       58,363          374             
00800.M2TS      4610 (0x1202)   0x90            PGS             fra (French)            5850.720                32                      23,437,916      137,270         
00800.M2TS      4611 (0x1203)   0x90            PGS             nld (Dutch)             5850.720                31                      22,635,294      131,378         
00800.M2TS      4612 (0x1204)   0x90            PGS             deu (German)            5850.720                36                      26,674,851      155,363         
00800.M2TS      4613 (0x1205)   0x90            PGS             ita (Italian)           5850.720                36                      26,379,445      154,436         

[/code]
<---- END FORUMS PASTE ---->

QUICK SUMMARY:

Disc Title: The Boss Baby
Disc Label: The.Boss.Baby.2017.3D.MULTI.COMPLETE.BLURAY-GMB
Disc Size: 40,845,069,153 bytes
Protection: AACS
Playlist: 00800.MPLS
Size: 26,123,028,480 bytes
Length: 1:37:30.845
Total Bitrate: 35.72 Mbps
Video: MPEG-4 AVC Video / 25072 kbps / 1080p / 23.976 fps / 16:9 / High Profile 4.1
Audio: English / DTS-HD Master Audio / 7.1 / 48 kHz /  4533 kbps / 24-bit (DTS Core: 5.1-ES / 48 kHz /  1509 kbps / 24-bit)
Audio: French / DTS Audio / 5.1 / 48 kHz /   768 kbps / 24-bit
Audio: Dutch / DTS Audio / 5.1 / 48 kHz /   768 kbps / 24-bit
Audio: German / DTS Audio / 5.1 / 48 kHz /   768 kbps / 24-bit
Audio: Italian / DTS Audio / 5.1 / 48 kHz /   768 kbps / 24-bit
Audio: Dutch / DTS Audio / 5.1 / 48 kHz /   768 kbps / 24-bit
Subtitle: English / 37.208 kbps
Subtitle: English / 0.080 kbps
Subtitle: French / 32.047 kbps
Subtitle: Dutch / 30.950 kbps
Subtitle: German / 36.473 kbps
Subtitle: Italian / 36.069 kbps


********************
PLAYLIST: 00801.MPLS
********************

<--- BEGIN FORUMS PASTE --->
[code]
                                                                                                                Total   Video                                             
Title                                                           Codec   Length  Movie Size      Disc Size       Bitrate Bitrate Main Audio Track                          Secondary Audio Track
-----                                                           ------  ------- --------------  --------------  ------- ------- ------------------                        ---------------------
00801.MPLS                                                      AVC     1:37:30 26,123,028,480  40,845,069,153  35.72   25.07   DTS-HD Master 7.1 4533Kbps (48kHz/24-bit) 
[/code]

[code]

DISC INFO:

Disc Title:     The Boss Baby
Disc Label:     The.Boss.Baby.2017.3D.MULTI.COMPLETE.BLURAY-GMB
Disc Size:      40,845,069,153 bytes
Protection:     AACS
Extras:         BD-Java
BDInfo:         0.7.5.5

PLAYLIST REPORT:

Name:                   00801.MPLS
Length:                 1:37:30.845 (h:m:s.ms)
Size:                   26,123,028,480 bytes
Total Bitrate:          35.72 Mbps

VIDEO:

Codec                   Bitrate             Description     
-----                   -------             -----------     
MPEG-4 AVC Video        25072 kbps          1080p / 23.976 fps / 16:9 / High Profile 4.1

AUDIO:

Codec                           Language        Bitrate         Description     
-----                           --------        -------         -----------     
DTS-HD Master Audio             English         4533 kbps       7.1 / 48 kHz /  4533 kbps / 24-bit (DTS Core: 5.1-ES / 48 kHz /  1509 kbps / 24-bit)
DTS Audio                       French          768 kbps        5.1 / 48 kHz /   768 kbps / 24-bit
DTS Audio                       Dutch           768 kbps        5.1 / 48 kHz /   768 kbps / 24-bit
DTS Audio                       German          768 kbps        5.1 / 48 kHz /   768 kbps / 24-bit
DTS Audio                       Italian         768 kbps        5.1 / 48 kHz /   768 kbps / 24-bit
DTS Audio                       Dutch           768 kbps        5.1 / 48 kHz /   768 kbps / 24-bit

SUBTITLES:

Codec                           Language        Bitrate         Description     
-----                           --------        -------         -----------     
Presentation Graphics           English         37.208 kbps                     
Presentation Graphics           English         0.080 kbps                      
Presentation Graphics           French          32.047 kbps                     
Presentation Graphics           Dutch           30.950 kbps                     
Presentation Graphics           German          36.473 kbps                     
Presentation Graphics           Italian         36.069 kbps                     

FILES:

Name            Time In         Length          Size            Total Bitrate   
----            -------         ------          ----            -------------   
00800.M2TS      0:00:00.000     1:37:30.845     26,123,028,480  35,719          

CHAPTERS:

Number          Time In         Length          Avg Video Rate  Max 1-Sec Rate  Max 1-Sec Time  Max 5-Sec Rate  Max 5-Sec Time  Max 10Sec Rate  Max 10Sec Time  Avg Frame Size  Max Frame Size  Max Frame Time  
------          -------         ------          --------------  --------------  --------------  --------------  --------------  --------------  --------------  --------------  --------------  --------------  
1               0:00:00.000     0:03:45.892     28,645 kbps     36,051 kbps     00:02:57.802    30,786 kbps     00:02:32.110    30,294 kbps     00:00:33.491    149,312 bytes   640,646 bytes   00:00:28.445    
2               0:03:45.892     0:05:12.395     24,511 kbps     32,982 kbps     00:07:04.215    29,730 kbps     00:08:23.544    29,283 kbps     00:06:41.943    127,791 bytes   640,646 bytes   00:07:05.049    
3               0:08:58.287     0:02:47.625     24,425 kbps     31,498 kbps     00:09:15.763    30,011 kbps     00:09:34.574    29,622 kbps     00:09:29.569    127,340 bytes   640,646 bytes   00:09:48.629    
4               0:11:45.913     0:03:13.651     24,380 kbps     32,340 kbps     00:13:02.364    29,340 kbps     00:13:48.494    27,445 kbps     00:14:28.534    127,106 bytes   640,646 bytes   00:12:04.432    
5               0:14:59.565     0:04:38.653     24,066 kbps     34,183 kbps     00:16:53.303    29,841 kbps     00:15:27.551    29,072 kbps     00:18:47.167    125,468 bytes   640,646 bytes   00:15:46.946    
6               0:19:38.218     0:03:14.569     24,586 kbps     33,818 kbps     00:22:44.863    30,264 kbps     00:21:13.897    29,775 kbps     00:21:12.104    128,182 bytes   640,646 bytes   00:20:16.381    
7               0:22:52.788     0:05:34.459     26,553 kbps     35,235 kbps     00:23:56.518    30,581 kbps     00:24:24.463    30,038 kbps     00:24:49.446    138,436 bytes   640,646 bytes   00:22:54.790    
8               0:28:27.247     0:01:58.868     23,031 kbps     31,022 kbps     00:28:51.563    28,120 kbps     00:28:31.960    27,111 kbps     00:28:27.831    120,073 bytes   640,646 bytes   00:28:40.343    
9               0:30:26.115     0:03:19.365     25,892 kbps     32,748 kbps     00:31:06.072    30,140 kbps     00:32:40.667    29,645 kbps     00:31:56.372    134,987 bytes   640,646 bytes   00:30:58.773    
10              0:33:45.481     0:03:11.774     24,802 kbps     32,038 kbps     00:36:16.924    29,696 kbps     00:35:06.312    29,016 kbps     00:35:06.312    129,306 bytes   640,646 bytes   00:34:16.220    
11              0:36:57.256     0:02:21.099     22,485 kbps     30,290 kbps     00:38:17.253    26,035 kbps     00:38:16.335    25,081 kbps     00:37:32.458    117,229 bytes   640,646 bytes   00:37:56.023    
12              0:39:18.355     0:03:16.988     22,779 kbps     35,079 kbps     00:42:04.897    30,125 kbps     00:40:24.880    29,524 kbps     00:40:19.875    118,761 bytes   640,646 bytes   00:40:51.824    
13              0:42:35.344     0:03:45.266     24,943 kbps     31,943 kbps     00:43:14.091    30,380 kbps     00:43:13.674    30,075 kbps     00:43:08.669    130,040 bytes   640,646 bytes   00:42:50.067    
14              0:46:20.611     0:05:17.108     24,511 kbps     33,339 kbps     00:51:18.200    29,696 kbps     00:49:55.826    28,562 kbps     00:51:18.116    127,790 bytes   640,646 bytes   00:46:47.596    
15              0:51:37.719     0:01:47.565     26,129 kbps     31,958 kbps     00:53:13.273    29,842 kbps     00:53:20.280    29,252 kbps     00:53:05.223    136,223 bytes   640,646 bytes   00:53:00.844    
16              0:53:25.285     0:03:03.433     25,498 kbps     33,431 kbps     00:56:18.792    30,010 kbps     00:55:23.319    29,736 kbps     00:55:59.731    132,936 bytes   640,646 bytes   00:55:12.600    
17              0:56:28.718     0:03:06.686     28,273 kbps     33,137 kbps     00:59:30.608    30,346 kbps     00:58:23.750    29,967 kbps     00:58:18.745    147,401 bytes   640,646 bytes   00:57:35.702    
18              0:59:35.405     0:04:27.767     24,051 kbps     33,000 kbps     01:00:21.743    30,071 kbps     01:02:22.822    29,878 kbps     01:02:18.901    125,389 bytes   640,646 bytes   01:02:43.176    
19              1:04:03.172     0:04:12.585     26,470 kbps     32,733 kbps     01:06:48.504    30,239 kbps     01:04:12.306    29,907 kbps     01:04:17.937    138,004 bytes   640,646 bytes   01:04:15.685    
20              1:08:15.758     0:03:14.152     26,537 kbps     32,197 kbps     01:10:18.088    30,236 kbps     01:10:14.084    29,904 kbps     01:08:51.043    138,352 bytes   578,948 bytes   01:10:28.140    
21              1:11:29.910     0:04:55.336     24,012 kbps     33,042 kbps     01:12:49.823    29,119 kbps     01:14:01.645    28,032 kbps     01:12:48.989    125,185 bytes   640,646 bytes   01:12:12.828    
22              1:16:25.247     0:06:44.862     24,039 kbps     32,174 kbps     01:18:10.686    29,610 kbps     01:21:01.106    29,022 kbps     01:20:02.422    125,330 bytes   640,646 bytes   01:17:53.377    
23              1:23:10.110     0:04:26.849     24,738 kbps     32,402 kbps     01:26:04.450    29,947 kbps     01:24:39.908    29,636 kbps     01:24:35.111    128,975 bytes   640,646 bytes   01:26:07.370    
24              1:27:36.960     0:09:53.884     25,594 kbps     38,343 kbps     01:30:26.295    31,524 kbps     01:30:22.291    29,985 kbps     01:28:08.700    133,445 bytes   640,646 bytes   01:27:43.591    

STREAM DIAGNOSTICS:

File            PID             Type            Codec           Language                Seconds                 Bitrate                 Bytes           Packets         
----            ---             ----            -----           --------                --------------          --------------          -------------   -----           
00800.M2TS      4113 (0x1011)   0x1B            AVC                                     5850.720                25,072                  18,336,375,902  99,736,524      
00800.M2TS      4352 (0x1100)   0x86            DTS-HD MA       eng (English)           5850.720                4,533                   3,315,520,824   18,931,777      
00800.M2TS      4353 (0x1101)   0x82            DTS             fra (French)            5850.720                768                     561,681,408     3,291,102       
00800.M2TS      4354 (0x1102)   0x82            DTS             nld (Dutch)             5850.720                768                     561,681,408     3,291,102       
00800.M2TS      4355 (0x1103)   0x82            DTS             deu (German)            5850.720                768                     561,681,408     3,291,102       
00800.M2TS      4356 (0x1104)   0x82            DTS             ita (Italian)           5850.720                768                     561,681,408     3,291,102       
00800.M2TS      4357 (0x1105)   0x82            DTS             nld (Dutch)             5850.720                768                     561,681,408     3,291,102       
00800.M2TS      4608 (0x1200)   0x90            PGS             eng (English)           5850.720                37                      27,212,455      158,859         
00800.M2TS      4609 (0x1201)   0x90            PGS             eng (English)           5850.720                0                       58,363          374             
00800.M2TS      4610 (0x1202)   0x90            PGS             fra (French)            5850.720                32                      23,437,916      137,270         
00800.M2TS      4611 (0x1203)   0x90            PGS             nld (Dutch)             5850.720                31                      22,635,294      131,378         
00800.M2TS      4612 (0x1204)   0x90            PGS             deu (German)            5850.720                36                      26,674,851      155,363         
00800.M2TS      4613 (0x1205)   0x90            PGS             ita (Italian)           5850.720                36                      26,379,445      154,436         

[/code]
<---- END FORUMS PASTE ---->

QUICK SUMMARY:

Disc Title: The Boss Baby
Disc Label: The.Boss.Baby.2017.3D.MULTI.COMPLETE.BLURAY-GMB
Disc Size: 40,845,069,153 bytes
Protection: AACS
Playlist: 00801.MPLS
Size: 26,123,028,480 bytes
Length: 1:37:30.845
Total Bitrate: 35.72 Mbps
Video: MPEG-4 AVC Video / 25072 kbps / 1080p / 23.976 fps / 16:9 / High Profile 4.1
Audio: English / DTS-HD Master Audio / 7.1 / 48 kHz /  4533 kbps / 24-bit (DTS Core: 5.1-ES / 48 kHz /  1509 kbps / 24-bit)
Audio: French / DTS Audio / 5.1 / 48 kHz /   768 kbps / 24-bit
Audio: Dutch / DTS Audio / 5.1 / 48 kHz /   768 kbps / 24-bit
Audio: German / DTS Audio / 5.1 / 48 kHz /   768 kbps / 24-bit
Audio: Italian / DTS Audio / 5.1 / 48 kHz /   768 kbps / 24-bit
Audio: Dutch / DTS Audio / 5.1 / 48 kHz /   768 kbps / 24-bit
Subtitle: English / 37.208 kbps
Subtitle: English / 0.080 kbps
Subtitle: French / 32.047 kbps
Subtitle: Dutch / 30.950 kbps
Subtitle: German / 36.473 kbps
Subtitle: Italian / 36.069 kbps


********************
PLAYLIST: 00850.MPLS
********************

<--- BEGIN FORUMS PASTE --->
[code]
                                                                                                                Total   Video                                             
Title                                                           Codec   Length  Movie Size      Disc Size       Bitrate Bitrate Main Audio Track                          Secondary Audio Track
-----                                                           ------  ------- --------------  --------------  ------- ------- ------------------                        ---------------------
00850.MPLS                                                      AVC     1:37:30 26,123,028,480  40,845,069,153  35.72   25.07   DTS-HD Master 7.1 4533Kbps (48kHz/24-bit) 
[/code]

[code]

DISC INFO:

Disc Title:     The Boss Baby
Disc Label:     The.Boss.Baby.2017.3D.MULTI.COMPLETE.BLURAY-GMB
Disc Size:      40,845,069,153 bytes
Protection:     AACS
Extras:         BD-Java
BDInfo:         0.7.5.5

PLAYLIST REPORT:

Name:                   00850.MPLS
Length:                 1:37:30.845 (h:m:s.ms)
Size:                   26,123,028,480 bytes
Total Bitrate:          35.72 Mbps

VIDEO:

Codec                   Bitrate             Description     
-----                   -------             -----------     
MPEG-4 AVC Video        25072 kbps          1080p / 23.976 fps / 16:9 / High Profile 4.1

AUDIO:

Codec                           Language        Bitrate         Description     
-----                           --------        -------         -----------     
DTS-HD Master Audio             English         4533 kbps       7.1 / 48 kHz /  4533 kbps / 24-bit (DTS Core: 5.1-ES / 48 kHz /  1509 kbps / 24-bit)
DTS Audio                       French          768 kbps        5.1 / 48 kHz /   768 kbps / 24-bit
DTS Audio                       Dutch           768 kbps        5.1 / 48 kHz /   768 kbps / 24-bit
DTS Audio                       German          768 kbps        5.1 / 48 kHz /   768 kbps / 24-bit
DTS Audio                       Italian         768 kbps        5.1 / 48 kHz /   768 kbps / 24-bit
DTS Audio                       Dutch           768 kbps        5.1 / 48 kHz /   768 kbps / 24-bit

SUBTITLES:

Codec                           Language        Bitrate         Description     
-----                           --------        -------         -----------     
Presentation Graphics           English         37.208 kbps                     
Presentation Graphics           English         0.080 kbps                      
Presentation Graphics           French          32.047 kbps                     
Presentation Graphics           Dutch           30.950 kbps                     
Presentation Graphics           German          36.473 kbps                     
Presentation Graphics           Italian         36.069 kbps                     

FILES:

Name            Time In         Length          Size            Total Bitrate   
----            -------         ------          ----            -------------   
00800.M2TS      0:00:00.000     1:37:30.845     26,123,028,480  35,719          

CHAPTERS:

Number          Time In         Length          Avg Video Rate  Max 1-Sec Rate  Max 1-Sec Time  Max 5-Sec Rate  Max 5-Sec Time  Max 10Sec Rate  Max 10Sec Time  Avg Frame Size  Max Frame Size  Max Frame Time  
------          -------         ------          --------------  --------------  --------------  --------------  --------------  --------------  --------------  --------------  --------------  --------------  
1               0:00:00.000     0:03:45.892     28,645 kbps     36,051 kbps     00:02:57.802    30,786 kbps     00:02:32.110    30,294 kbps     00:00:33.491    149,312 bytes   640,646 bytes   00:00:28.445    
2               0:03:45.892     0:05:12.395     24,511 kbps     32,982 kbps     00:07:04.215    29,730 kbps     00:08:23.544    29,283 kbps     00:06:41.943    127,791 bytes   640,646 bytes   00:07:05.049    
3               0:08:58.287     0:02:47.625     24,425 kbps     31,498 kbps     00:09:15.763    30,011 kbps     00:09:34.574    29,622 kbps     00:09:29.569    127,340 bytes   640,646 bytes   00:09:48.629    
4               0:11:45.913     0:03:13.651     24,380 kbps     32,340 kbps     00:13:02.364    29,340 kbps     00:13:48.494    27,445 kbps     00:14:28.534    127,106 bytes   640,646 bytes   00:12:04.432    
5               0:14:59.565     0:04:38.653     24,066 kbps     34,183 kbps     00:16:53.303    29,841 kbps     00:15:27.551    29,072 kbps     00:18:47.167    125,468 bytes   640,646 bytes   00:15:46.946    
6               0:19:38.218     0:03:14.569     24,586 kbps     33,818 kbps     00:22:44.863    30,264 kbps     00:21:13.897    29,775 kbps     00:21:12.104    128,182 bytes   640,646 bytes   00:20:16.381    
7               0:22:52.788     0:05:34.459     26,553 kbps     35,235 kbps     00:23:56.518    30,581 kbps     00:24:24.463    30,038 kbps     00:24:49.446    138,436 bytes   640,646 bytes   00:22:54.790    
8               0:28:27.247     0:01:58.868     23,031 kbps     31,022 kbps     00:28:51.563    28,120 kbps     00:28:31.960    27,111 kbps     00:28:27.831    120,073 bytes   640,646 bytes   00:28:40.343    
9               0:30:26.115     0:03:19.365     25,892 kbps     32,748 kbps     00:31:06.072    30,140 kbps     00:32:40.667    29,645 kbps     00:31:56.372    134,987 bytes   640,646 bytes   00:30:58.773    
10              0:33:45.481     0:03:11.774     24,802 kbps     32,038 kbps     00:36:16.924    29,696 kbps     00:35:06.312    29,016 kbps     00:35:06.312    129,306 bytes   640,646 bytes   00:34:16.220    
11              0:36:57.256     0:02:21.099     22,485 kbps     30,290 kbps     00:38:17.253    26,035 kbps     00:38:16.335    25,081 kbps     00:37:32.458    117,229 bytes   640,646 bytes   00:37:56.023    
12              0:39:18.355     0:03:16.988     22,779 kbps     35,079 kbps     00:42:04.897    30,125 kbps     00:40:24.880    29,524 kbps     00:40:19.875    118,761 bytes   640,646 bytes   00:40:51.824    
13              0:42:35.344     0:03:45.266     24,943 kbps     31,943 kbps     00:43:14.091    30,380 kbps     00:43:13.674    30,075 kbps     00:43:08.669    130,040 bytes   640,646 bytes   00:42:50.067    
14              0:46:20.611     0:05:17.108     24,511 kbps     33,339 kbps     00:51:18.200    29,696 kbps     00:49:55.826    28,562 kbps     00:51:18.116    127,790 bytes   640,646 bytes   00:46:47.596    
15              0:51:37.719     0:01:47.565     26,129 kbps     31,958 kbps     00:53:13.273    29,842 kbps     00:53:20.280    29,252 kbps     00:53:05.223    136,223 bytes   640,646 bytes   00:53:00.844    
16              0:53:25.285     0:03:03.433     25,498 kbps     33,431 kbps     00:56:18.792    30,010 kbps     00:55:23.319    29,736 kbps     00:55:59.731    132,936 bytes   640,646 bytes   00:55:12.600    
17              0:56:28.718     0:03:06.686     28,273 kbps     33,137 kbps     00:59:30.608    30,346 kbps     00:58:23.750    29,967 kbps     00:58:18.745    147,401 bytes   640,646 bytes   00:57:35.702    
18              0:59:35.405     0:04:27.767     24,051 kbps     33,000 kbps     01:00:21.743    30,071 kbps     01:02:22.822    29,878 kbps     01:02:18.901    125,389 bytes   640,646 bytes   01:02:43.176    
19              1:04:03.172     0:04:12.585     26,470 kbps     32,733 kbps     01:06:48.504    30,239 kbps     01:04:12.306    29,907 kbps     01:04:17.937    138,004 bytes   640,646 bytes   01:04:15.685    
20              1:08:15.758     0:03:14.152     26,537 kbps     32,197 kbps     01:10:18.088    30,236 kbps     01:10:14.084    29,904 kbps     01:08:51.043    138,352 bytes   578,948 bytes   01:10:28.140    
21              1:11:29.910     0:04:55.336     24,012 kbps     33,042 kbps     01:12:49.823    29,119 kbps     01:14:01.645    28,032 kbps     01:12:48.989    125,185 bytes   640,646 bytes   01:12:12.828    
22              1:16:25.247     0:06:44.862     24,039 kbps     32,174 kbps     01:18:10.686    29,610 kbps     01:21:01.106    29,022 kbps     01:20:02.422    125,330 bytes   640,646 bytes   01:17:53.377    
23              1:23:10.110     0:04:26.849     24,738 kbps     32,402 kbps     01:26:04.450    29,947 kbps     01:24:39.908    29,636 kbps     01:24:35.111    128,975 bytes   640,646 bytes   01:26:07.370    
24              1:27:36.960     0:09:53.884     25,594 kbps     38,343 kbps     01:30:26.295    31,524 kbps     01:30:22.291    29,985 kbps     01:28:08.700    133,445 bytes   640,646 bytes   01:27:43.591    

STREAM DIAGNOSTICS:

File            PID             Type            Codec           Language                Seconds                 Bitrate                 Bytes           Packets         
----            ---             ----            -----           --------                --------------          --------------          -------------   -----           
00800.M2TS      4113 (0x1011)   0x1B            AVC                                     5850.720                25,072                  18,336,375,902  99,736,524      
00800.M2TS      4352 (0x1100)   0x86            DTS-HD MA       eng (English)           5850.720                4,533                   3,315,520,824   18,931,777      
00800.M2TS      4353 (0x1101)   0x82            DTS             fra (French)            5850.720                768                     561,681,408     3,291,102       
00800.M2TS      4354 (0x1102)   0x82            DTS             nld (Dutch)             5850.720                768                     561,681,408     3,291,102       
00800.M2TS      4355 (0x1103)   0x82            DTS             deu (German)            5850.720                768                     561,681,408     3,291,102       
00800.M2TS      4356 (0x1104)   0x82            DTS             ita (Italian)           5850.720                768                     561,681,408     3,291,102       
00800.M2TS      4357 (0x1105)   0x82            DTS             nld (Dutch)             5850.720                768                     561,681,408     3,291,102       
00800.M2TS      4608 (0x1200)   0x90            PGS             eng (English)           5850.720                37                      27,212,455      158,859         
00800.M2TS      4609 (0x1201)   0x90            PGS             eng (English)           5850.720                0                       58,363          374             
00800.M2TS      4610 (0x1202)   0x90            PGS             fra (French)            5850.720                32                      23,437,916      137,270         
00800.M2TS      4611 (0x1203)   0x90            PGS             nld (Dutch)             5850.720                31                      22,635,294      131,378         
00800.M2TS      4612 (0x1204)   0x90            PGS             deu (German)            5850.720                36                      26,674,851      155,363         
00800.M2TS      4613 (0x1205)   0x90            PGS             ita (Italian)           5850.720                36                      26,379,445      154,436         

[/code]
<---- END FORUMS PASTE ---->

QUICK SUMMARY:

Disc Title: The Boss Baby
Disc Label: The.Boss.Baby.2017.3D.MULTI.COMPLETE.BLURAY-GMB
Disc Size: 40,845,069,153 bytes
Protection: AACS
Playlist: 00850.MPLS
Size: 26,123,028,480 bytes
Length: 1:37:30.845
Total Bitrate: 35.72 Mbps
Video: MPEG-4 AVC Video / 25072 kbps / 1080p / 23.976 fps / 16:9 / High Profile 4.1
Audio: English / DTS-HD Master Audio / 7.1 / 48 kHz /  4533 kbps / 24-bit (DTS Core: 5.1-ES / 48 kHz /  1509 kbps / 24-bit)
Audio: French / DTS Audio / 5.1 / 48 kHz /   768 kbps / 24-bit
Audio: Dutch / DTS Audio / 5.1 / 48 kHz /   768 kbps / 24-bit
Audio: German / DTS Audio / 5.1 / 48 kHz /   768 kbps / 24-bit
Audio: Italian / DTS Audio / 5.1 / 48 kHz /   768 kbps / 24-bit
Audio: Dutch / DTS Audio / 5.1 / 48 kHz /   768 kbps / 24-bit
Subtitle: English / 37.208 kbps
Subtitle: English / 0.080 kbps
Subtitle: French / 32.047 kbps
Subtitle: Dutch / 30.950 kbps
Subtitle: German / 36.473 kbps
Subtitle: Italian / 36.069 kbps


********************
PLAYLIST: 00851.MPLS
********************

<--- BEGIN FORUMS PASTE --->
[code]
                                                                                                                Total   Video                                             
Title                                                           Codec   Length  Movie Size      Disc Size       Bitrate Bitrate Main Audio Track                          Secondary Audio Track
-----                                                           ------  ------- --------------  --------------  ------- ------- ------------------                        ---------------------
00851.MPLS                                                      AVC     1:37:30 26,123,028,480  40,845,069,153  35.72   25.07   DTS-HD Master 7.1 4533Kbps (48kHz/24-bit) 
[/code]

[code]

DISC INFO:

Disc Title:     The Boss Baby
Disc Label:     The.Boss.Baby.2017.3D.MULTI.COMPLETE.BLURAY-GMB
Disc Size:      40,845,069,153 bytes
Protection:     AACS
Extras:         BD-Java
BDInfo:         0.7.5.5

PLAYLIST REPORT:

Name:                   00851.MPLS
Length:                 1:37:30.845 (h:m:s.ms)
Size:                   26,123,028,480 bytes
Total Bitrate:          35.72 Mbps

VIDEO:

Codec                   Bitrate             Description     
-----                   -------             -----------     
MPEG-4 AVC Video        25072 kbps          1080p / 23.976 fps / 16:9 / High Profile 4.1

AUDIO:

Codec                           Language        Bitrate         Description     
-----                           --------        -------         -----------     
DTS-HD Master Audio             English         4533 kbps       7.1 / 48 kHz /  4533 kbps / 24-bit (DTS Core: 5.1-ES / 48 kHz /  1509 kbps / 24-bit)
DTS Audio                       French          768 kbps        5.1 / 48 kHz /   768 kbps / 24-bit
DTS Audio                       Dutch           768 kbps        5.1 / 48 kHz /   768 kbps / 24-bit
DTS Audio                       German          768 kbps        5.1 / 48 kHz /   768 kbps / 24-bit
DTS Audio                       Italian         768 kbps        5.1 / 48 kHz /   768 kbps / 24-bit
DTS Audio                       Dutch           768 kbps        5.1 / 48 kHz /   768 kbps / 24-bit

SUBTITLES:

Codec                           Language        Bitrate         Description     
-----                           --------        -------         -----------     
Presentation Graphics           English         37.208 kbps                     
Presentation Graphics           English         0.080 kbps                      
Presentation Graphics           French          32.047 kbps                     
Presentation Graphics           Dutch           30.950 kbps                     
Presentation Graphics           German          36.473 kbps                     
Presentation Graphics           Italian         36.069 kbps                     

FILES:

Name            Time In         Length          Size            Total Bitrate   
----            -------         ------          ----            -------------   
00800.M2TS      0:00:00.000     1:37:30.845     26,123,028,480  35,719          

CHAPTERS:

Number          Time In         Length          Avg Video Rate  Max 1-Sec Rate  Max 1-Sec Time  Max 5-Sec Rate  Max 5-Sec Time  Max 10Sec Rate  Max 10Sec Time  Avg Frame Size  Max Frame Size  Max Frame Time  
------          -------         ------          --------------  --------------  --------------  --------------  --------------  --------------  --------------  --------------  --------------  --------------  
1               0:00:00.000     0:03:45.892     28,645 kbps     36,051 kbps     00:02:57.802    30,786 kbps     00:02:32.110    30,294 kbps     00:00:33.491    149,312 bytes   640,646 bytes   00:00:28.445    
2               0:03:45.892     0:05:12.395     24,511 kbps     32,982 kbps     00:07:04.215    29,730 kbps     00:08:23.544    29,283 kbps     00:06:41.943    127,791 bytes   640,646 bytes   00:07:05.049    
3               0:08:58.287     0:02:47.625     24,425 kbps     31,498 kbps     00:09:15.763    30,011 kbps     00:09:34.574    29,622 kbps     00:09:29.569    127,340 bytes   640,646 bytes   00:09:48.629    
4               0:11:45.913     0:03:13.651     24,380 kbps     32,340 kbps     00:13:02.364    29,340 kbps     00:13:48.494    27,445 kbps     00:14:28.534    127,106 bytes   640,646 bytes   00:12:04.432    
5               0:14:59.565     0:04:38.653     24,066 kbps     34,183 kbps     00:16:53.303    29,841 kbps     00:15:27.551    29,072 kbps     00:18:47.167    125,468 bytes   640,646 bytes   00:15:46.946    
6               0:19:38.218     0:03:14.569     24,586 kbps     33,818 kbps     00:22:44.863    30,264 kbps     00:21:13.897    29,775 kbps     00:21:12.104    128,182 bytes   640,646 bytes   00:20:16.381    
7               0:22:52.788     0:05:34.459     26,553 kbps     35,235 kbps     00:23:56.518    30,581 kbps     00:24:24.463    30,038 kbps     00:24:49.446    138,436 bytes   640,646 bytes   00:22:54.790    
8               0:28:27.247     0:01:58.868     23,031 kbps     31,022 kbps     00:28:51.563    28,120 kbps     00:28:31.960    27,111 kbps     00:28:27.831    120,073 bytes   640,646 bytes   00:28:40.343    
9               0:30:26.115     0:03:19.365     25,892 kbps     32,748 kbps     00:31:06.072    30,140 kbps     00:32:40.667    29,645 kbps     00:31:56.372    134,987 bytes   640,646 bytes   00:30:58.773    
10              0:33:45.481     0:03:11.774     24,802 kbps     32,038 kbps     00:36:16.924    29,696 kbps     00:35:06.312    29,016 kbps     00:35:06.312    129,306 bytes   640,646 bytes   00:34:16.220    
11              0:36:57.256     0:02:21.099     22,485 kbps     30,290 kbps     00:38:17.253    26,035 kbps     00:38:16.335    25,081 kbps     00:37:32.458    117,229 bytes   640,646 bytes   00:37:56.023    
12              0:39:18.355     0:03:16.988     22,779 kbps     35,079 kbps     00:42:04.897    30,125 kbps     00:40:24.880    29,524 kbps     00:40:19.875    118,761 bytes   640,646 bytes   00:40:51.824    
13              0:42:35.344     0:03:45.266     24,943 kbps     31,943 kbps     00:43:14.091    30,380 kbps     00:43:13.674    30,075 kbps     00:43:08.669    130,040 bytes   640,646 bytes   00:42:50.067    
14              0:46:20.611     0:05:17.108     24,511 kbps     33,339 kbps     00:51:18.200    29,696 kbps     00:49:55.826    28,562 kbps     00:51:18.116    127,790 bytes   640,646 bytes   00:46:47.596    
15              0:51:37.719     0:01:47.565     26,129 kbps     31,958 kbps     00:53:13.273    29,842 kbps     00:53:20.280    29,252 kbps     00:53:05.223    136,223 bytes   640,646 bytes   00:53:00.844    
16              0:53:25.285     0:03:03.433     25,498 kbps     33,431 kbps     00:56:18.792    30,010 kbps     00:55:23.319    29,736 kbps     00:55:59.731    132,936 bytes   640,646 bytes   00:55:12.600    
17              0:56:28.718     0:03:06.686     28,273 kbps     33,137 kbps     00:59:30.608    30,346 kbps     00:58:23.750    29,967 kbps     00:58:18.745    147,401 bytes   640,646 bytes   00:57:35.702    
18              0:59:35.405     0:04:27.767     24,051 kbps     33,000 kbps     01:00:21.743    30,071 kbps     01:02:22.822    29,878 kbps     01:02:18.901    125,389 bytes   640,646 bytes   01:02:43.176    
19              1:04:03.172     0:04:12.585     26,470 kbps     32,733 kbps     01:06:48.504    30,239 kbps     01:04:12.306    29,907 kbps     01:04:17.937    138,004 bytes   640,646 bytes   01:04:15.685    
20              1:08:15.758     0:03:14.152     26,537 kbps     32,197 kbps     01:10:18.088    30,236 kbps     01:10:14.084    29,904 kbps     01:08:51.043    138,352 bytes   578,948 bytes   01:10:28.140    
21              1:11:29.910     0:04:55.336     24,012 kbps     33,042 kbps     01:12:49.823    29,119 kbps     01:14:01.645    28,032 kbps     01:12:48.989    125,185 bytes   640,646 bytes   01:12:12.828    
22              1:16:25.247     0:06:44.862     24,039 kbps     32,174 kbps     01:18:10.686    29,610 kbps     01:21:01.106    29,022 kbps     01:20:02.422    125,330 bytes   640,646 bytes   01:17:53.377    
23              1:23:10.110     0:04:26.849     24,738 kbps     32,402 kbps     01:26:04.450    29,947 kbps     01:24:39.908    29,636 kbps     01:24:35.111    128,975 bytes   640,646 bytes   01:26:07.370    
24              1:27:36.960     0:09:53.884     25,594 kbps     38,343 kbps     01:30:26.295    31,524 kbps     01:30:22.291    29,985 kbps     01:28:08.700    133,445 bytes   640,646 bytes   01:27:43.591    

STREAM DIAGNOSTICS:

File            PID             Type            Codec           Language                Seconds                 Bitrate                 Bytes           Packets         
----            ---             ----            -----           --------                --------------          --------------          -------------   -----           
00800.M2TS      4113 (0x1011)   0x1B            AVC                                     5850.720                25,072                  18,336,375,902  99,736,524      
00800.M2TS      4352 (0x1100)   0x86            DTS-HD MA       eng (English)           5850.720                4,533                   3,315,520,824   18,931,777      
00800.M2TS      4353 (0x1101)   0x82            DTS             fra (French)            5850.720                768                     561,681,408     3,291,102       
00800.M2TS      4354 (0x1102)   0x82            DTS             nld (Dutch)             5850.720                768                     561,681,408     3,291,102       
00800.M2TS      4355 (0x1103)   0x82            DTS             deu (German)            5850.720                768                     561,681,408     3,291,102       
00800.M2TS      4356 (0x1104)   0x82            DTS             ita (Italian)           5850.720                768                     561,681,408     3,291,102       
00800.M2TS      4357 (0x1105)   0x82            DTS             nld (Dutch)             5850.720                768                     561,681,408     3,291,102       
00800.M2TS      4608 (0x1200)   0x90            PGS             eng (English)           5850.720                37                      27,212,455      158,859         
00800.M2TS      4609 (0x1201)   0x90            PGS             eng (English)           5850.720                0                       58,363          374             
00800.M2TS      4610 (0x1202)   0x90            PGS             fra (French)            5850.720                32                      23,437,916      137,270         
00800.M2TS      4611 (0x1203)   0x90            PGS             nld (Dutch)             5850.720                31                      22,635,294      131,378         
00800.M2TS      4612 (0x1204)   0x90            PGS             deu (German)            5850.720                36                      26,674,851      155,363         
00800.M2TS      4613 (0x1205)   0x90            PGS             ita (Italian)           5850.720                36                      26,379,445      154,436         

[/code]
<---- END FORUMS PASTE ---->

QUICK SUMMARY:

Disc Title: The Boss Baby
Disc Label: The.Boss.Baby.2017.3D.MULTI.COMPLETE.BLURAY-GMB
Disc Size: 40,845,069,153 bytes
Protection: AACS
Playlist: 00851.MPLS
Size: 26,123,028,480 bytes
Length: 1:37:30.845
Total Bitrate: 35.72 Mbps
Video: MPEG-4 AVC Video / 25072 kbps / 1080p / 23.976 fps / 16:9 / High Profile 4.1
Audio: English / DTS-HD Master Audio / 7.1 / 48 kHz /  4533 kbps / 24-bit (DTS Core: 5.1-ES / 48 kHz /  1509 kbps / 24-bit)
Audio: French / DTS Audio / 5.1 / 48 kHz /   768 kbps / 24-bit
Audio: Dutch / DTS Audio / 5.1 / 48 kHz /   768 kbps / 24-bit
Audio: German / DTS Audio / 5.1 / 48 kHz /   768 kbps / 24-bit
Audio: Italian / DTS Audio / 5.1 / 48 kHz /   768 kbps / 24-bit
Audio: Dutch / DTS Audio / 5.1 / 48 kHz /   768 kbps / 24-bit
Subtitle: English / 37.208 kbps
Subtitle: English / 0.080 kbps
Subtitle: French / 32.047 kbps
Subtitle: Dutch / 30.950 kbps
Subtitle: German / 36.473 kbps
Subtitle: Italian / 36.069 kbps

